<mxfile host="app.diagrams.net" modified="2024-06-27T00:58:20.741Z" agent="Mozilla/5.0 (Windows NT 10.0; Win64; x64) AppleWebKit/537.36 (KHTML, like Gecko) Chrome/126.0.0.0 Safari/537.36" etag="yqX7XejSVZ0miY2k6YdH" version="24.6.3" type="device">
  <diagram name="Page-1" id="e7e014a7-5840-1c2e-5031-d8a46d1fe8dd">
    <mxGraphModel dx="725" dy="848" grid="1" gridSize="10" guides="1" tooltips="1" connect="1" arrows="1" fold="1" page="1" pageScale="1" pageWidth="1169" pageHeight="826" background="none" math="0" shadow="0">
      <root>
        <mxCell id="0" />
        <mxCell id="1" parent="0" />
        <mxCell id="3" value="Dosen" style="swimlane;whiteSpace=wrap" parent="1" vertex="1">
          <mxGeometry x="444.5" y="128" width="280" height="570" as="geometry" />
        </mxCell>
        <mxCell id="24" value="" style="endArrow=open;strokeColor=#FF0000;endFill=1;rounded=0" parent="3" edge="1">
          <mxGeometry relative="1" as="geometry">
            <mxPoint x="130" y="245" as="sourcePoint" />
          </mxGeometry>
        </mxCell>
        <mxCell id="2" value="Mahasiswa" style="swimlane;whiteSpace=wrap" parent="3" vertex="1">
          <mxGeometry x="-285.5" width="285.5" height="570" as="geometry" />
        </mxCell>
        <mxCell id="5" value="" style="ellipse;shape=startState;fillColor=#000000;strokeColor=#ff0000;" parent="2" vertex="1">
          <mxGeometry x="60" y="40" width="30" height="30" as="geometry" />
        </mxCell>
        <mxCell id="6" value="" style="edgeStyle=elbowEdgeStyle;elbow=horizontal;verticalAlign=bottom;endArrow=open;endSize=8;strokeColor=#FF0000;endFill=1;rounded=0" parent="2" source="5" target="7" edge="1">
          <mxGeometry x="100" y="40" as="geometry">
            <mxPoint x="115" y="110" as="targetPoint" />
          </mxGeometry>
        </mxCell>
        <mxCell id="7" value="Registrasi" style="" parent="2" vertex="1">
          <mxGeometry x="20" y="92" width="110" height="50" as="geometry" />
        </mxCell>
        <mxCell id="8" value="Log In" style="" parent="2" vertex="1">
          <mxGeometry x="152.75" y="92" width="110" height="50" as="geometry" />
        </mxCell>
        <mxCell id="9" value="" style="endArrow=open;strokeColor=#FF0000;endFill=1;rounded=0" parent="2" source="7" target="8" edge="1">
          <mxGeometry relative="1" as="geometry" />
        </mxCell>
        <mxCell id="11" value="" style="endArrow=open;strokeColor=#FF0000;endFill=1;rounded=0;entryX=1;entryY=0.5;entryDx=0;entryDy=0;exitX=0.5;exitY=1;exitDx=0;exitDy=0;" parent="2" source="8" target="pzsqCqJDikQ9UUgpVha9-24" edge="1">
          <mxGeometry relative="1" as="geometry">
            <mxPoint x="115" y="260" as="targetPoint" />
          </mxGeometry>
        </mxCell>
        <mxCell id="9RB2pKdtoymQ52heiLZ1-41" value="Masuk Lantai 1-3" style="" parent="2" vertex="1">
          <mxGeometry x="20" y="235" width="110" height="50" as="geometry" />
        </mxCell>
        <mxCell id="9RB2pKdtoymQ52heiLZ1-42" value="Apakah Benar&#xa;70%?" style="rhombus;fillColor=#ffffc0;strokeColor=#ff0000;" parent="2" vertex="1">
          <mxGeometry x="155.5" y="297" width="104.5" height="80" as="geometry" />
        </mxCell>
        <mxCell id="9RB2pKdtoymQ52heiLZ1-44" value="Mengerjakan&#xa;Quest" style="" parent="2" vertex="1">
          <mxGeometry x="20" y="312" width="110" height="50" as="geometry" />
        </mxCell>
        <mxCell id="9RB2pKdtoymQ52heiLZ1-46" value="" style="endArrow=open;strokeColor=#FF0000;endFill=1;rounded=0;entryX=0.5;entryY=0;entryDx=0;entryDy=0;" parent="2" source="9RB2pKdtoymQ52heiLZ1-41" target="9RB2pKdtoymQ52heiLZ1-44" edge="1">
          <mxGeometry relative="1" as="geometry">
            <mxPoint x="74.74000000000001" y="310" as="sourcePoint" />
            <mxPoint x="74.74000000000001" y="338" as="targetPoint" />
          </mxGeometry>
        </mxCell>
        <mxCell id="20" value="" style="endArrow=open;strokeColor=#FF0000;endFill=1;rounded=0" parent="2" source="9RB2pKdtoymQ52heiLZ1-44" target="9RB2pKdtoymQ52heiLZ1-42" edge="1">
          <mxGeometry relative="1" as="geometry">
            <mxPoint x="165.5" y="335.01" as="sourcePoint" />
            <mxPoint x="220" y="338.9917351598174" as="targetPoint" />
          </mxGeometry>
        </mxCell>
        <mxCell id="9RB2pKdtoymQ52heiLZ1-47" value="" style="edgeStyle=elbowEdgeStyle;elbow=horizontal;align=left;verticalAlign=top;endArrow=open;endSize=8;strokeColor=#FF0000;endFill=1;rounded=0;exitX=0.5;exitY=0;exitDx=0;exitDy=0;" parent="2" source="9RB2pKdtoymQ52heiLZ1-42" target="9RB2pKdtoymQ52heiLZ1-41" edge="1">
          <mxGeometry x="-0.4834" y="3" relative="1" as="geometry">
            <mxPoint x="185.5" y="222" as="targetPoint" />
            <mxPoint x="185.5" y="162" as="sourcePoint" />
            <Array as="points">
              <mxPoint x="208" y="262" />
            </Array>
            <mxPoint x="1" as="offset" />
          </mxGeometry>
        </mxCell>
        <mxCell id="9RB2pKdtoymQ52heiLZ1-48" value="Tidak" style="edgeLabel;html=1;align=center;verticalAlign=middle;resizable=0;points=[];" parent="9RB2pKdtoymQ52heiLZ1-47" vertex="1" connectable="0">
          <mxGeometry x="-0.1279" y="-1" relative="1" as="geometry">
            <mxPoint x="32" y="9" as="offset" />
          </mxGeometry>
        </mxCell>
        <mxCell id="9RB2pKdtoymQ52heiLZ1-49" value="Lanjut ke&#xa;Lantai&#xa;Berikutnya" style="" parent="2" vertex="1">
          <mxGeometry x="90" y="392" width="80" height="58" as="geometry" />
        </mxCell>
        <mxCell id="9RB2pKdtoymQ52heiLZ1-50" value="" style="endArrow=open;strokeColor=#FF0000;endFill=1;rounded=0;exitX=0.5;exitY=0;exitDx=0;exitDy=0;entryX=0.642;entryY=1.027;entryDx=0;entryDy=0;entryPerimeter=0;" parent="2" source="9RB2pKdtoymQ52heiLZ1-49" target="9RB2pKdtoymQ52heiLZ1-44" edge="1">
          <mxGeometry relative="1" as="geometry">
            <mxPoint x="74.84" y="365" as="sourcePoint" />
            <mxPoint x="74.84" y="392" as="targetPoint" />
          </mxGeometry>
        </mxCell>
        <mxCell id="9RB2pKdtoymQ52heiLZ1-51" value="" style="edgeStyle=elbowEdgeStyle;elbow=horizontal;align=left;verticalAlign=top;endArrow=open;endSize=8;strokeColor=#FF0000;endFill=1;rounded=0;exitX=0.5;exitY=1;exitDx=0;exitDy=0;entryX=1;entryY=0.5;entryDx=0;entryDy=0;" parent="2" source="9RB2pKdtoymQ52heiLZ1-42" target="9RB2pKdtoymQ52heiLZ1-49" edge="1">
          <mxGeometry x="-0.4834" y="3" relative="1" as="geometry">
            <mxPoint x="140" y="399.5" as="targetPoint" />
            <mxPoint x="218" y="434.5" as="sourcePoint" />
            <Array as="points">
              <mxPoint x="208" y="392" />
            </Array>
            <mxPoint x="1" as="offset" />
          </mxGeometry>
        </mxCell>
        <mxCell id="9RB2pKdtoymQ52heiLZ1-52" value="Iya" style="edgeLabel;html=1;align=center;verticalAlign=middle;resizable=0;points=[];" parent="9RB2pKdtoymQ52heiLZ1-51" vertex="1" connectable="0">
          <mxGeometry x="-0.1279" y="-1" relative="1" as="geometry">
            <mxPoint x="24" y="-11" as="offset" />
          </mxGeometry>
        </mxCell>
        <mxCell id="9RB2pKdtoymQ52heiLZ1-53" value="Score" style="" parent="2" vertex="1">
          <mxGeometry x="20" y="462" width="110" height="50" as="geometry" />
        </mxCell>
        <mxCell id="9RB2pKdtoymQ52heiLZ1-54" value="" style="endArrow=open;strokeColor=#FF0000;endFill=1;rounded=0;entryX=0.5;entryY=0;entryDx=0;entryDy=0;exitX=0.25;exitY=1;exitDx=0;exitDy=0;" parent="2" source="9RB2pKdtoymQ52heiLZ1-44" target="9RB2pKdtoymQ52heiLZ1-53" edge="1">
          <mxGeometry relative="1" as="geometry">
            <mxPoint x="35.5" y="372" as="sourcePoint" />
            <mxPoint x="35.5" y="434.5" as="targetPoint" />
            <Array as="points">
              <mxPoint x="45.5" y="422" />
            </Array>
          </mxGeometry>
        </mxCell>
        <mxCell id="9RB2pKdtoymQ52heiLZ1-55" value="Jika Lantai 4" style="edgeLabel;html=1;align=center;verticalAlign=middle;resizable=0;points=[];" parent="9RB2pKdtoymQ52heiLZ1-54" vertex="1" connectable="0">
          <mxGeometry x="-0.2362" y="-2" relative="1" as="geometry">
            <mxPoint y="5" as="offset" />
          </mxGeometry>
        </mxCell>
        <mxCell id="9RB2pKdtoymQ52heiLZ1-56" value="Simpan Score&#xa;ke Database" style="" parent="2" vertex="1">
          <mxGeometry x="150" y="462" width="110" height="50" as="geometry" />
        </mxCell>
        <mxCell id="9RB2pKdtoymQ52heiLZ1-57" value="" style="ellipse;shape=endState;fillColor=#000000;strokeColor=#ff0000" parent="2" vertex="1">
          <mxGeometry x="190" y="532" width="30" height="30" as="geometry" />
        </mxCell>
        <mxCell id="9RB2pKdtoymQ52heiLZ1-58" value="" style="endArrow=open;strokeColor=#FF0000;endFill=1;rounded=0;entryX=0.5;entryY=0;entryDx=0;entryDy=0;exitX=0.5;exitY=1;exitDx=0;exitDy=0;" parent="2" source="9RB2pKdtoymQ52heiLZ1-56" target="9RB2pKdtoymQ52heiLZ1-57" edge="1">
          <mxGeometry relative="1" as="geometry">
            <mxPoint x="207.56" y="512" as="sourcePoint" />
            <mxPoint x="207.56" y="539" as="targetPoint" />
          </mxGeometry>
        </mxCell>
        <mxCell id="9RB2pKdtoymQ52heiLZ1-59" value="" style="endArrow=open;strokeColor=#FF0000;endFill=1;rounded=0;entryX=0;entryY=0.5;entryDx=0;entryDy=0;exitX=1;exitY=0.5;exitDx=0;exitDy=0;" parent="2" source="9RB2pKdtoymQ52heiLZ1-53" target="9RB2pKdtoymQ52heiLZ1-56" edge="1">
          <mxGeometry relative="1" as="geometry">
            <mxPoint x="215" y="522" as="sourcePoint" />
            <mxPoint x="215" y="542" as="targetPoint" />
          </mxGeometry>
        </mxCell>
        <mxCell id="pzsqCqJDikQ9UUgpVha9-24" value="Menu Game" style="" vertex="1" parent="2">
          <mxGeometry x="20" y="162" width="110" height="50" as="geometry" />
        </mxCell>
        <mxCell id="pzsqCqJDikQ9UUgpVha9-25" value="" style="endArrow=open;strokeColor=#FF0000;endFill=1;rounded=0;entryX=0.5;entryY=0;entryDx=0;entryDy=0;exitX=0.5;exitY=1;exitDx=0;exitDy=0;" edge="1" parent="2" source="pzsqCqJDikQ9UUgpVha9-24" target="9RB2pKdtoymQ52heiLZ1-41">
          <mxGeometry relative="1" as="geometry">
            <mxPoint x="142" y="267" as="targetPoint" />
            <mxPoint x="220" y="222" as="sourcePoint" />
          </mxGeometry>
        </mxCell>
        <mxCell id="9RB2pKdtoymQ52heiLZ1-60" value="" style="ellipse;shape=startState;fillColor=#000000;strokeColor=#ff0000;" parent="3" vertex="1">
          <mxGeometry x="60.5" y="42" width="30" height="30" as="geometry" />
        </mxCell>
        <mxCell id="9RB2pKdtoymQ52heiLZ1-61" value="" style="edgeStyle=elbowEdgeStyle;elbow=horizontal;verticalAlign=bottom;endArrow=open;endSize=8;strokeColor=#FF0000;endFill=1;rounded=0" parent="3" source="9RB2pKdtoymQ52heiLZ1-60" target="9RB2pKdtoymQ52heiLZ1-62" edge="1">
          <mxGeometry x="-344.5" y="-88" as="geometry">
            <mxPoint x="115.5" y="112" as="targetPoint" />
          </mxGeometry>
        </mxCell>
        <mxCell id="9RB2pKdtoymQ52heiLZ1-62" value="Registrasi" style="" parent="3" vertex="1">
          <mxGeometry x="20.5" y="94" width="110" height="50" as="geometry" />
        </mxCell>
        <mxCell id="9RB2pKdtoymQ52heiLZ1-63" value="Log In" style="" parent="3" vertex="1">
          <mxGeometry x="20.5" y="164" width="110" height="50" as="geometry" />
        </mxCell>
        <mxCell id="9RB2pKdtoymQ52heiLZ1-64" value="" style="endArrow=open;strokeColor=#FF0000;endFill=1;rounded=0" parent="3" source="9RB2pKdtoymQ52heiLZ1-62" target="9RB2pKdtoymQ52heiLZ1-63" edge="1">
          <mxGeometry relative="1" as="geometry" />
        </mxCell>
        <mxCell id="9RB2pKdtoymQ52heiLZ1-65" value="" style="endArrow=open;strokeColor=#FF0000;endFill=1;rounded=0" parent="3" source="9RB2pKdtoymQ52heiLZ1-63" target="9RB2pKdtoymQ52heiLZ1-66" edge="1">
          <mxGeometry relative="1" as="geometry">
            <mxPoint x="115.5" y="262" as="targetPoint" />
          </mxGeometry>
        </mxCell>
        <mxCell id="9RB2pKdtoymQ52heiLZ1-66" value="Masuk ke&#xa;Dashboard Dosen" style="" parent="3" vertex="1">
          <mxGeometry x="20.5" y="237" width="110" height="50" as="geometry" />
        </mxCell>
        <mxCell id="9RB2pKdtoymQ52heiLZ1-68" value="Melihat Score&#xa;Mahasiswa" style="" parent="3" vertex="1">
          <mxGeometry x="20.5" y="314" width="110" height="50" as="geometry" />
        </mxCell>
        <mxCell id="9RB2pKdtoymQ52heiLZ1-69" value="" style="endArrow=open;strokeColor=#FF0000;endFill=1;rounded=0;entryX=0.5;entryY=0;entryDx=0;entryDy=0;" parent="3" source="9RB2pKdtoymQ52heiLZ1-66" target="9RB2pKdtoymQ52heiLZ1-68" edge="1">
          <mxGeometry relative="1" as="geometry">
            <mxPoint x="75.24000000000001" y="312" as="sourcePoint" />
            <mxPoint x="75.24000000000001" y="340" as="targetPoint" />
          </mxGeometry>
        </mxCell>
        <mxCell id="9RB2pKdtoymQ52heiLZ1-81" value="" style="ellipse;shape=endState;fillColor=#000000;strokeColor=#ff0000" parent="3" vertex="1">
          <mxGeometry x="60.5" y="392" width="30" height="30" as="geometry" />
        </mxCell>
        <mxCell id="9RB2pKdtoymQ52heiLZ1-82" value="" style="endArrow=open;strokeColor=#FF0000;endFill=1;rounded=0;entryX=0.5;entryY=0;entryDx=0;entryDy=0;" parent="3" source="9RB2pKdtoymQ52heiLZ1-68" target="9RB2pKdtoymQ52heiLZ1-81" edge="1">
          <mxGeometry relative="1" as="geometry">
            <mxPoint x="205.5" y="514" as="sourcePoint" />
            <mxPoint x="208.05999999999995" y="541" as="targetPoint" />
          </mxGeometry>
        </mxCell>
      </root>
    </mxGraphModel>
  </diagram>
</mxfile>
